<svg width="96" height="96" viewBox="0 0 96 96" fill="none" xmlns="http://www.w3.org/2000/svg">
<path d="M46.7992 86.3999H22.7992C17.4972 86.3999 13.1992 82.1018 13.1992 76.7998L13.1996 19.2C13.1996 13.8981 17.4977 9.6001 22.7996 9.6001H66.0007C71.3026 9.6001 75.6007 13.8982 75.6007 19.2001V38.4001M30.0007 28.8001H58.8007M30.0007 43.2001H58.8007M58.8007 62.2159V73.9934C58.8007 79.8133 65.0063 85.1511 70.8262 85.1511C76.6461 85.1511 82.8007 79.8133 82.8007 73.9935V59.1166C82.8007 56.0355 81.0295 52.9088 77.0894 52.9088C72.8743 52.9088 70.8262 56.0355 70.8262 59.1166V73.3736M30.0007 57.6001H44.4007" stroke="#7A7A7A" stroke-width="5" stroke-linecap="round" stroke-linejoin="round"/>
</svg>
